<svg width="1140" height="400" viewBox="0 0 1140 400" fill="none" xmlns="http://www.w3.org/2000/svg">
<g clip-path="url(#clip0_954:331343)">
<rect width="1140" height="400" fill="#B2CDDB"/>
<path fill-rule="evenodd" clip-rule="evenodd" d="M1048.46 539.555C946.842 539.555 864.463 621.934 864.463 723.555C864.463 825.175 946.842 907.555 1048.46 907.555C1150.08 907.555 1232.46 825.175 1232.46 723.555C1232.46 621.934 1150.08 539.555 1048.46 539.555ZM664.463 723.555C664.463 511.477 836.386 339.555 1048.46 339.555C1260.54 339.555 1432.46 511.477 1432.46 723.555C1432.46 935.632 1260.54 1107.55 1048.46 1107.55C836.386 1107.55 664.463 935.632 664.463 723.555Z" fill="white"/>
<path fill-rule="evenodd" clip-rule="evenodd" d="M384.934 512.447L-94.7703 1047.58L-243.693 914.078L102.512 527.872L-283.694 181.667L-150.196 32.7433L384.934 512.447Z" fill="#8CB4C8"/>
<path fill-rule="evenodd" clip-rule="evenodd" d="M448.51 -19.3786L1740.79 -145.314L1760.19 53.7434L467.908 179.678L448.51 -19.3786Z" fill="#FFE900"/>
</g>
<defs>
<clipPath id="clip0_954:331343">
<rect width="1140" height="400" fill="white"/>
</clipPath>
</defs>
</svg>
